<?xml version="1.0" encoding="UTF-8" standalone="no"?>
<svg xmlns="http://www.w3.org/2000/svg" version="1.1" xmlns:xlink="http://www.w3.org/1999/xlink" xmlns:svgjs="http://svgjs.dev/svgjs" width="1500" height="1500" viewBox="0 0 1500 1500"><rect width="1500" height="1500" fill="#ffffff"></rect><g transform="matrix(0.6666666666666666,0,0,0.6666666666666666,249.39393939393943,649.9326898147214)"><svg viewBox="0 0 396 79" data-background-color="#ffffff" preserveAspectRatio="xMidYMid meet" height="299" width="1500" xmlns="http://www.w3.org/2000/svg" xmlns:xlink="http://www.w3.org/1999/xlink"><g id="tight-bounds" transform="matrix(1,0,0,1,0.2400000000000091,0.15878346807869548)"><svg viewBox="0 0 395.52 78.68243306384258" height="78.68243306384258" width="395.52"><g><svg viewBox="0 0 571.6256904856089 113.71586804512216" height="78.68243306384258" width="395.52"><g transform="matrix(1,0,0,1,176.1056904856089,10.631219748702094)"><svg viewBox="0 0 395.52 92.45342854771798" height="92.45342854771798" width="395.52"><g id="textblocktransform"><svg viewBox="0 0 395.52 92.45342854771798" height="92.45342854771798" width="395.52" id="textblock"><g><svg viewBox="0 0 395.52 58.43557387183185" height="58.43557387183185" width="395.52"><g transform="matrix(1,0,0,1,0,0)"><svg width="395.52" viewBox="4.49 -35.01 236.95 35.01" height="58.43557387183185" data-palette-color="#eb9036"><path d="M4.49-5L4.49-35.01 9.5-35.01 9.5-5 29.49-5 29.49-35.01 34.5-35.01 34.5-5Q34.5-3.98 34.11-3.06 33.72-2.15 33.03-1.46 32.35-0.78 31.43-0.39 30.52 0 29.49 0L29.49 0 9.5 0Q8.47 0 7.56-0.39 6.64-0.78 5.96-1.46 5.27-2.15 4.88-3.06 4.49-3.98 4.49-5L4.49-5ZM48.48-27.15L48.48 0 43.48 0 43.48-35.01 48.48-35.01 69.53-7.86 69.53-35.01 74.53-35.01 74.53 0 69.53 0 48.48-27.15ZM83.52-5L83.52-30Q83.52-31.03 83.91-31.95 84.3-32.86 84.98-33.53 85.66-34.2 86.58-34.61 87.5-35.01 88.52-35.01L88.52-35.01 107.51-35.01Q108.54-35.01 109.46-34.61 110.37-34.2 111.05-33.53 111.74-32.86 112.13-31.95 112.52-31.03 112.52-30L112.52-30 112.52-25.49 107.51-25.49 107.51-30 88.52-30 88.52-5 107.51-5 107.51-9.5 112.52-9.5 112.52-5Q112.52-3.98 112.13-3.06 111.74-2.15 111.05-1.46 110.37-0.78 109.46-0.39 108.54 0 107.51 0L107.51 0 88.52 0Q87.5 0 86.58-0.39 85.66-0.78 84.98-1.46 84.3-2.15 83.91-3.06 83.52-3.98 83.52-5L83.52-5ZM120.52-35.01L125.53-35.01 125.53-5 143.52-5 143.52 0 120.52 0 120.52-35.01ZM147.52-8.5L147.52-10.6 152.43-10.6 152.43-8.74Q152.43-6.76 153.31-5.83 154.19-4.91 156.19-4.91L156.19-4.91 166.27-4.91Q168.28-4.91 169.16-5.83 170.03-6.76 170.03-8.74L170.03-8.74 170.03-11.45Q170.03-13.45 169.16-14.36 168.28-15.26 166.27-15.26L166.27-15.26 155.92-15.26 155.92-20.14 166.13-20.14Q167.96-20.21 168.75-21.13 169.55-22.05 169.55-23.95L169.55-23.95 169.55-26.25Q169.55-28.25 168.65-29.17 167.76-30.1 165.79-30.1L165.79-30.1 156.68-30.1Q154.7-30.1 153.82-29.17 152.94-28.25 152.94-26.25L152.94-26.25 152.94-24.39 148.04-24.39 148.04-26.49Q148.04-35.01 156.53-35.01L156.53-35.01 165.93-35.01Q170.25-35.01 172.34-32.91 174.43-30.81 174.43-26.49L174.43-26.49 174.43-25.85Q174.43-22.9 173.39-20.98 172.35-19.07 170.38-18.14L170.38-18.14Q172.6-17.48 173.77-15.5 174.94-13.53 174.94-10.25L174.94-10.25 174.94-8.5Q174.94 0 166.45 0L166.45 0 156.04 0Q147.52 0 147.52-8.5L147.52-8.5ZM182.43-35.01L187.44-35.01 187.44-5 205.43-5 205.43 0 182.43 0 182.43-35.01ZM241.44-30L241.44-5Q241.44-3.98 241.05-3.06 240.66-2.15 239.98-1.46 239.29-0.78 238.38-0.39 237.46 0 236.44 0L236.44 0 216.44 0Q215.41 0 214.5-0.39 213.58-0.78 212.9-1.46 212.22-2.15 211.83-3.06 211.44-3.98 211.44-5L211.44-5 211.44-30Q211.44-31.03 211.83-31.95 212.22-32.86 212.9-33.53 213.58-34.2 214.5-34.61 215.41-35.01 216.44-35.01L216.44-35.01 236.44-35.01Q237.46-35.01 238.38-34.61 239.29-34.2 239.98-33.53 240.66-32.86 241.05-31.95 241.44-31.03 241.44-30L241.44-30ZM236.44-30L216.44-30 216.44-5 236.44-5 236.44-30Z" opacity="1" transform="matrix(1,0,0,1,0,0)" fill="#eb9036" class="wordmark-text-0" data-fill-palette-color="primary" id="text-0"></path></svg></g></svg></g><g transform="matrix(1,0,0,1,0,72.23081040919843)"><svg viewBox="0 0 180.35711999999998 20.222618138519547" height="20.222618138519547" width="180.35711999999998"><g transform="matrix(1,0,0,1,0,0)"><svg width="180.35711999999998" viewBox="3.08 -44.07 492.04 55.18" height="20.222618138519547" data-palette-color="#ea3a36"><path d="M3.08 0L8.84-37.35 15.21-37.35 23.71-9.77 25.15-3.81 26.54-9.79 34.74-37.35 40.82-37.35 46.85 0 42.7 0 38.16-28.22 37.48-34.81 35.99-28.17 27.56-0.02 22.75-0.02 13.96-28.32 12.23-34.81 11.4-28.27 7.28 0 3.08 0ZM77.49-29.05L77.49-12.79Q77.49-4.74 77.95-0.2L77.95-0.2 74.31 0.1 73.73-3.34Q70.87-0.98 67.06 0.07L67.06 0.07Q65.55 0.49 63.46 0.49 61.37 0.49 59.73-0.01 58.08-0.51 57.1-1.61L57.1-1.61Q55.32-3.59 55.32-8.81L55.32-8.81 55.32-29.05 59.42-29.05 59.42-9.47Q59.42-5.96 60.1-4.94 60.79-3.93 61.73-3.58 62.67-3.22 63.96-3.22 65.26-3.22 66.46-3.43 67.67-3.64 68.89-4.03L68.89-4.03Q71.46-4.86 73.53-6.3L73.53-6.3 73.53-6.32Q73.44-8.18 73.44-13.55L73.44-13.55 73.44-29.05 77.49-29.05ZM102.56-25.73L102.56-25.73Q97.8-25.73 92.87-22.92L92.87-22.92 92.87 0 88.81 0 88.81-29.05 92.38-29.05 92.77-26.05Q95.43-28.22 99.38-29.15L99.38-29.15Q101-29.54 103.17-29.54 105.34-29.54 107-29.04 108.66-28.54 109.64-27.44L109.64-27.44Q111.42-25.46 111.42-20.24L111.42-20.24 111.42 0 107.32 0 107.32-19.48Q107.32-23 106.64-24.01 105.95-25.02 105.01-25.38 104.07-25.73 102.56-25.73ZM143.67-5.03L144.87-1.54Q139.81 0.49 133.71 0.49L133.71 0.49Q130.17 0.49 127.7-0.24L127.7-0.24Q123.77-1.37 122.48-4.88L122.48-4.88Q121.28-8.18 121.28-14.65L121.28-14.65 121.28-15.89Q121.28-23.63 124.5-26.76L124.5-26.76Q127.41-29.54 134.2-29.54L134.2-29.54Q140.81-29.54 143.23-26.27L143.23-26.27Q144.4-24.68 144.78-22.42 145.16-20.17 145.16-18.12L145.16-18.12Q145.16-14.92 145.01-13.16L145.01-13.16Q141.57-13.01 138.84-13.01L138.84-13.01Q138.84-13.01 134.9-13.01L134.9-13.01Q128.75-13.01 125.43-13.55L125.43-13.55Q125.43-7.93 126.85-5.71L126.85-5.71Q128.58-3 133.76-3 138.93-3 143.67-5.03L143.67-5.03ZM125.43-16.41L141.03-16.41 141.03-18.75Q141.03-22.58 139.54-24.22L139.54-24.22Q137.88-26.05 133.81-26.05L133.81-26.05Q128.92-26.05 127.14-23.93L127.14-23.93Q125.43-21.9 125.43-16.41L125.43-16.41ZM169.16-25.73L169.16-25.73Q164.39-25.73 159.46-22.92L159.46-22.92 159.46 0 155.41 0 155.41-29.05 158.97-29.05 159.37-26.05Q162.03-28.22 165.98-29.15L165.98-29.15Q167.59-29.54 169.77-29.54 171.94-29.54 173.6-29.04 175.26-28.54 176.24-27.44L176.24-27.44Q178.02-25.46 178.02-20.24L178.02-20.24 178.02 0 173.92 0 173.92-19.48Q173.92-23 173.23-24.01 172.55-25.02 171.61-25.38 170.67-25.73 169.16-25.73ZM210.27-5.03L211.46-1.54Q206.41 0.49 200.3 0.49L200.3 0.49Q196.76 0.49 194.3-0.24L194.3-0.24Q190.37-1.37 189.07-4.88L189.07-4.88Q187.88-8.18 187.88-14.65L187.88-14.65 187.88-15.89Q187.88-23.63 191.1-26.76L191.1-26.76Q194.01-29.54 200.79-29.54L200.79-29.54Q207.41-29.54 209.83-26.27L209.83-26.27Q211-24.68 211.38-22.42 211.76-20.17 211.76-18.12L211.76-18.12Q211.76-14.92 211.61-13.16L211.61-13.16Q208.17-13.01 205.43-13.01L205.43-13.01Q205.43-13.01 201.5-13.01L201.5-13.01Q195.35-13.01 192.03-13.55L192.03-13.55Q192.03-7.93 193.44-5.71L193.44-5.71Q195.18-3 200.35-3 205.53-3 210.27-5.03L210.27-5.03ZM192.03-16.41L207.63-16.41 207.63-18.75Q207.63-22.58 206.14-24.22L206.14-24.22Q204.48-26.05 200.4-26.05L200.4-26.05Q195.52-26.05 193.74-23.93L193.74-23.93Q192.03-21.9 192.03-16.41L192.03-16.41ZM221.05-29.13L220.54-44.07 225.08-44.07 224.57-29.13 221.05-29.13ZM232.82-2.39L234.58-5.76Q239.61-2.95 244.68-2.95L244.68-2.95Q248.91-2.95 249.64-5.96L249.64-5.96Q249.88-6.98 249.88-8.46 249.88-9.94 249.54-10.75 249.2-11.57 248.4-11.98 247.59-12.38 246.26-12.57 244.93-12.77 242.88-13.12 240.83-13.48 239.12-13.92 237.41-14.36 236.21-15.19L236.21-15.19Q233.67-16.97 233.77-21.19L233.77-21.19 233.77-21.8Q233.77-26.25 236.7-28.13L236.7-28.13Q239.53-29.98 246.05-29.39L246.05-29.39Q250.5-28.98 253.13-27.86L253.13-27.86 251.98-24.17Q249.05-25.42 244.95-25.98L244.95-25.98Q243.68-26.15 242.57-26.15 241.46-26.15 240.56-25.98 239.66-25.81 239.05-25.34L239.05-25.34Q237.87-24.39 237.82-21.8L237.82-21.8Q237.75-18.75 239.53-17.92L239.53-17.92Q241.24-17.11 243.59-16.81 245.93-16.5 247.42-16.27 248.91-16.04 250.13-15.65 251.35-15.26 252.23-14.4L252.23-14.4Q254.06-12.67 254.01-8.37L254.01-8.37Q253.89-0.88 247.76 0.17L247.76 0.17Q245.91 0.49 244.05 0.49 242.19 0.49 240.64 0.26 239.09 0.02 237.68-0.39L237.68-0.39Q234.99-1.15 232.82-2.39L232.82-2.39ZM280.06-1.73L280.06-1.73 280.06 11.11 276 11.11 276-29.05 279.3-29.05 279.76-26.05Q282.62-28.2 287.21-29.2L287.21-29.2Q288.87-29.54 290.82-29.54 292.78-29.54 294.28-29.03 295.78-28.52 296.75-27.6 297.73-26.68 298.27-25.42 298.81-24.15 299.07-22.66L299.07-22.66Q299.42-20.61 299.42-16.11L299.42-16.11 299.42-15.55Q299.42-9.84 299.03-7.64 298.63-5.44 298-4.02 297.37-2.59 296.24-1.59L296.24-1.59Q293.92 0.49 289.06 0.49 284.21 0.49 280.06-1.73ZM280.06-22.92L280.06-5.08Q284.21-3.17 288.77-3.17L288.77-3.17Q291.75-3.17 293.12-4.27L293.12-4.27Q294.97-5.79 295.19-11.33L295.19-11.33Q295.27-13.16 295.27-15.53L295.27-15.53 295.27-16.06Q295.27-21.68 294.29-23.58L294.29-23.58Q293.19-25.76 289.75-25.76L289.75-25.76 289.38-25.76Q285.79-25.76 281.94-23.97L281.94-23.97Q280.81-23.46 280.06-22.92L280.06-22.92ZM308.59-14.45L308.59-14.45Q308.59-20 309.15-22.19 309.72-24.39 310.53-25.67 311.35-26.95 312.74-27.81L312.74-27.81Q315.53-29.54 320.97-29.54L320.97-29.54Q328.83-29.54 331.08-25.66L331.08-25.66Q332.42-23.32 332.62-19.04L332.62-19.04Q332.69-17.02 332.69-14.58 332.69-12.13 332.53-10.02 332.37-7.91 331.91-6.23 331.44-4.54 330.61-3.28 329.78-2.03 328.42-1.17L328.42-1.17Q325.73 0.49 320.58 0.49L320.58 0.49Q312.87 0.49 310.45-3.32L310.45-3.32Q308.96-5.69 308.72-9.96L308.72-9.96Q308.59-12.01 308.59-14.45ZM315.23-4.27Q316.11-3.61 317.44-3.28 318.77-2.95 321.08-2.95 323.39-2.95 324.96-3.61 326.54-4.27 327.33-5.73 328.12-7.18 328.33-9.5 328.54-11.82 328.54-14.89 328.54-17.97 328.36-20.02 328.17-22.07 327.44-23.41L327.44-23.41Q325.98-26.05 320.92-26.05L320.92-26.05Q315.58-26.05 313.96-23.41L313.96-23.41Q313.16-22.07 312.94-20 312.72-17.92 312.72-15.48 312.72-13.04 312.78-11.34 312.84-9.64 313.1-8.29 313.35-6.93 313.85-5.93 314.35-4.93 315.23-4.27ZM353.15-25.51L353.15-25.51Q350.02-25.51 346.77-22.39L346.77-22.39 346.77 0 342.72 0 342.72-29.05 346.29-29.05 346.68-25.2Q347.82-26.98 349.15-27.98 350.49-28.98 351.34-29.2L351.34-29.2Q352.56-29.54 353.66-29.54 354.76-29.54 356.42-29.1L356.42-29.1 356.05-25.22Q354.81-25.51 353.15-25.51ZM376.48-4.57L377.88-1.39Q373.9 0.49 370.53 0.49L370.53 0.49Q364.42 0.49 363.59-4.74L363.59-4.74Q363.4-5.98 363.4-8.35L363.4-8.35 363.4-25.66 359.88-25.66 359.88-28.66 363.4-29.05 364.03-35.69 367.43-35.69 367.43-29.05 375.9-29.05 375.9-25.66 367.43-25.66 367.43-8.42Q367.43-5.42 367.87-4.59L367.87-4.59Q368.67-3.08 371.09-3.08 373.51-3.08 376.48-4.57L376.48-4.57ZM393.23-38.48Q391.35-38.48 390.37-37.66 389.4-36.84 389.4-34.44 389.4-32.03 390.3-29.05L390.3-29.05 397.21-29.05 397.21-25.66 390.25-25.66 390.25 0 386.32 0 386.32-25.66 381.46-25.66 381.46-28.66 386.27-29.05Q385.95-29.71 385.66-31.91 385.37-34.11 385.37-35.06L385.37-35.06Q385.37-41.99 393.47-41.99L393.47-41.99Q396.4-41.99 399.02-41.36L399.02-41.36 398.28-37.72Q395.11-38.48 393.23-38.48ZM404.41-14.45L404.41-14.45Q404.41-20 404.97-22.19 405.53-24.39 406.35-25.67 407.17-26.95 408.56-27.81L408.56-27.81Q411.34-29.54 416.79-29.54L416.79-29.54Q424.65-29.54 426.89-25.66L426.89-25.66Q428.24-23.32 428.43-19.04L428.43-19.04Q428.51-17.02 428.51-14.58 428.51-12.13 428.35-10.02 428.19-7.91 427.72-6.23 427.26-4.54 426.43-3.28 425.6-2.03 424.23-1.17L424.23-1.17Q421.55 0.49 416.4 0.49L416.4 0.49Q408.68 0.49 406.26-3.32L406.26-3.32Q404.77-5.69 404.53-9.96L404.53-9.96Q404.41-12.01 404.41-14.45ZM411.05-4.27Q411.93-3.61 413.26-3.28 414.59-2.95 416.9-2.95 419.2-2.95 420.78-3.61 422.35-4.27 423.15-5.73 423.94-7.18 424.15-9.5 424.35-11.82 424.35-14.89 424.35-17.97 424.17-20.02 423.99-22.07 423.26-23.41L423.26-23.41Q421.79-26.05 416.74-26.05L416.74-26.05Q411.39-26.05 409.78-23.41L409.78-23.41Q408.97-22.07 408.75-20 408.53-17.92 408.53-15.48 408.53-13.04 408.6-11.34 408.66-9.64 408.91-8.29 409.17-6.93 409.67-5.93 410.17-4.93 411.05-4.27ZM439.46 0L439.42-41.5 443.44-41.85 443.44 0 439.46 0ZM458.11-36.01L458.11-36.01Q456.48-36.01 456.01-36.47L456.01-36.47Q455.28-37.23 455.28-38.56 455.28-39.89 455.44-40.47 455.6-41.04 455.92-41.36L455.92-41.36Q456.5-41.94 457.71-41.94 458.92-41.94 459.44-41.82 459.97-41.7 460.31-41.36L460.31-41.36Q460.9-40.77 460.9-39.44 460.9-38.11 460.76-37.54 460.63-36.96 460.31-36.62L460.31-36.62Q459.7-36.01 458.11-36.01ZM456.19 0L456.14-29.05 460.14-29.05 460.14 0 456.19 0ZM471.03-14.45L471.03-14.45Q471.03-20 471.59-22.19 472.15-24.39 472.97-25.67 473.79-26.95 475.18-27.81L475.18-27.81Q477.96-29.54 483.4-29.54L483.4-29.54Q491.27-29.54 493.51-25.66L493.51-25.66Q494.85-23.32 495.05-19.04L495.05-19.04Q495.12-17.02 495.12-14.58 495.12-12.13 494.96-10.02 494.81-7.91 494.34-6.23 493.88-4.54 493.05-3.28 492.22-2.03 490.85-1.17L490.85-1.17Q488.17 0.49 483.01 0.49L483.01 0.49Q475.3 0.49 472.88-3.32L472.88-3.32Q471.39-5.69 471.15-9.96L471.15-9.96Q471.03-12.01 471.03-14.45ZM477.67-4.27Q478.55-3.61 479.88-3.28 481.21-2.95 483.51-2.95 485.82-2.95 487.4-3.61 488.97-4.27 489.76-5.73 490.56-7.18 490.77-9.5 490.97-11.82 490.97-14.89 490.97-17.97 490.79-20.02 490.61-22.07 489.87-23.41L489.87-23.41Q488.41-26.05 483.36-26.05L483.36-26.05Q478.01-26.05 476.4-23.41L476.4-23.41Q475.59-22.07 475.37-20 475.15-17.92 475.15-15.48 475.15-13.04 475.21-11.34 475.27-9.64 475.53-8.29 475.79-6.93 476.29-5.93 476.79-4.93 477.67-4.27Z" opacity="1" transform="matrix(1,0,0,1,0,0)" fill="#ea3a36" class="slogan-text-1" data-fill-palette-color="secondary" id="text-1"></path></svg></g></svg></g></svg></g></svg></g><g><svg viewBox="0 0 162.31045394824233 113.71586804512216" height="113.71586804512216" width="162.31045394824233"><g><svg xmlns="http://www.w3.org/2000/svg" xmlns:xlink="http://www.w3.org/1999/xlink" version="1.1" x="0" y="0" viewBox="6.355 19.422 87.28999999999998 61.15600000000002" enable-background="new 0 0 100 100" xml:space="preserve" height="113.71586804512216" width="162.31045394824233" class="icon-icon-0" data-fill-palette-color="accent" id="icon-0"><path fill="#83471d" d="M90.668 22.126c-1.594-1.724-3.801-2.704-6.107-2.704h-24.34c-2.293 0-4.49 0.968-6.082 2.672h-8.277c-1.588-1.704-3.783-2.672-6.076-2.672H15.449c-2.316 0-4.521 0.98-6.111 2.704-1.777 0.146-2.983 0.992-2.983 2.13v8.024c0 0.791 0.589 1.452 1.601 1.829L9.527 45.04c0.117 4.487 3.863 8.141 8.352 8.141h19.477c4.479 0 8.229-3.651 8.348-8.047l1.253-8.832c0-1.008 1.395-1.858 3.05-1.858 1.65 0 3.041 0.851 3.05 1.975l1.238 8.622c0.129 4.562 3.803 8.141 8.359 8.141h19.471c4.488 0 8.236-3.651 8.348-8.047l1.58-11.024c1.008-0.38 1.592-1.038 1.592-1.829v-8.024C93.645 23.118 92.439 22.272 90.668 22.126zM38.767 44.271c-0.039 0.18-0.049 0.36-0.049 0.542 0 0.755-0.609 1.371-1.362 1.371H17.879c-0.753 0-1.366-0.616-1.366-1.371 0-0.16-0.007-0.326-0.033-0.495L14.086 27.68c0.047-0.708 0.642-1.268 1.363-1.268h24.336c0.716 0 1.315 0.558 1.366 1.102L38.767 44.271zM83.523 44.354c-0.021 0.154-0.031 0.307-0.031 0.46 0 0.755-0.615 1.371-1.367 1.371H62.654c-0.752 0-1.367-0.616-1.367-1.371 0-0.169-0.018-0.334-0.041-0.495l-2.395-16.632c0.051-0.715 0.65-1.274 1.369-1.274h24.34c0.715 0 1.312 0.56 1.369 1.1L83.523 44.354z" data-fill-palette-color="accent"></path><path fill="#83471d" d="M71.18 66.135H28.813c-1.418 0-2.562 1.153-2.562 2.571s1.145 2.569 2.562 2.569h9.307v7.385c0 1.059 0.862 1.918 1.928 1.918H50h9.946c1.07 0 1.928-0.859 1.928-1.918v-7.385h9.307c1.422 0 2.574-1.151 2.574-2.569S72.602 66.135 71.18 66.135zM48.076 76.733h-6.098v-5.458h6.098V76.733zM58.021 76.733h-6.1v-5.458h6.1V76.733z" data-fill-palette-color="accent"></path></svg></g></svg></g></svg></g><defs></defs></svg><rect width="395.52" height="78.68243306384258" fill="none" stroke="none" visibility="hidden"></rect></g></svg></g></svg>